<svg id="Layer_1" data-name="Layer 1" xmlns="http://www.w3.org/2000/svg" xmlns:xlink="http://www.w3.org/1999/xlink" viewBox="0 0 497.26 497.26"><defs><style>.cls-1{fill:url(#linear-gradient);}.cls-2{fill:url(#linear-gradient-2);}.cls-3,.cls-5{fill:#fff;}.cls-4{fill:none;}.cls-4,.cls-5{stroke:#fc6d7f;stroke-miterlimit:10;}</style><linearGradient id="linear-gradient" x1="248.63" x2="248.63" y2="497.26" gradientUnits="userSpaceOnUse"><stop offset="0" stop-color="#fc6a7f"/><stop offset="1" stop-color="#fcb585"/></linearGradient><linearGradient id="linear-gradient-2" x1="248.63" y1="466.42" x2="248.63" y2="30.84" gradientUnits="userSpaceOnUse"><stop offset="0" stop-color="#fc977e"/><stop offset="1" stop-color="#fcb585"/></linearGradient></defs><title>icon_friends</title><g id="Object"><circle class="cls-1" cx="248.63" cy="248.63" r="248.63"/><circle class="cls-2" cx="248.63" cy="248.63" r="217.79"/><path class="cls-3" d="M347.53,343.43a5.55,5.55,0,0,1,.8-.6c6.2-4.5,10.5-11.5,10.5-18.7,0-5.6-1.9-24-25.9-24-14.5,0-23.5,14.2-23.5,24.4,0,10.9,10.3,23.5,23.5,23.5A24.13,24.13,0,0,0,347.53,343.43Z"/><path class="cls-3" d="M350.83,349.13a32.4,32.4,0,0,1-17.9,5.6A28.27,28.27,0,0,1,319,351c-9.2,1.2-23.7,4.6-26.8,9.4-3.3,5.1-4.4,27.6-4.3,41.7a71.7,71.7,0,0,0,18.3,10.4v-28.6a3.3,3.3,0,0,1,6.6,0v30.7a69.09,69.09,0,0,0,17.9,2.4v3.3l.1-3.3a88.16,88.16,0,0,0,30-5l-1.9-25.9a3.26,3.26,0,0,1,6.5-.5l1.8,23.8a71.88,71.88,0,0,0,18.4-12.2c-1-14.1-3.5-36.6-6.2-41.2C377.33,352.73,363.23,349.83,350.83,349.13Z"/><path class="cls-4" d="M330.73,264c-46.2,0-78.4,42.7-78.4,81.1,0,21.8,11.1,45.1,29.7,60.6a3.25,3.25,0,0,0,1.3,1A76.59,76.59,0,0,0,308,420a1.69,1.69,0,0,0,1,.3,76.21,76.21,0,0,0,21.6,3.2h.1a94,94,0,0,0,34.2-6.3,3.55,3.55,0,0,0,.9-.4,81.17,81.17,0,0,0,27.3-18,78.83,78.83,0,0,0,22.8-55.1C415.93,305.23,393.53,264,330.73,264Zm36.4,145.3-1.8-23.8a3.26,3.26,0,0,0-6.5.5l1.9,25.9a88.16,88.16,0,0,1-30,5h-.1a65.57,65.57,0,0,1-17.9-2.4v-30.6a3.3,3.3,0,0,0-6.6,0v28.6a71.7,71.7,0,0,1-18.3-10.4c-.1-14.1,1-36.6,4.3-41.7,3.1-4.8,17.6-8.2,26.8-9.4a28.27,28.27,0,0,0,13.9,3.7,32.15,32.15,0,0,0,17.9-5.6c12.4.7,26.5,3.6,28.4,6.9,2.7,4.6,5.2,27.1,6.2,41.2A67.19,67.19,0,0,1,367.13,409.33Zm-57.7-84.6c0-10.2,8.9-24.4,23.5-24.4,24,0,25.9,18.3,25.9,24,0,7.2-4.3,14.1-10.5,18.7a1.56,1.56,0,0,0-.8.6,26.4,26.4,0,0,1-14.6,4.7C319.73,348.23,309.43,335.53,309.43,324.73Zm82.2,66.3c-1-11.5-3.2-32.6-6.7-38.4-3.6-6-17.5-8.5-27.2-9.5a28.83,28.83,0,0,0,7.6-18.9c0-14.7-8.5-30.5-32.4-30.5-17.7,0-30,16.3-30,31,0,7.3,3.4,15,9,20.8-8.4,1.6-21.1,5-25.2,11.3-4.3,6.6-5.1,27.9-5.3,39.5-14.2-14-22.5-33.2-22.5-51.3,0-35.3,29.5-74.6,71.9-74.6,72.9,0,78.6,56.1,78.6,73.2A73.33,73.33,0,0,1,391.63,391Z"/><path class="cls-3" d="M174.29,161a5.55,5.55,0,0,1,.8-.6c6.2-4.5,10.5-11.5,10.5-18.7,0-5.6-1.9-24-25.9-24-14.5,0-23.5,14.2-23.5,24.4,0,10.9,10.3,23.5,23.5,23.5A24.13,24.13,0,0,0,174.29,161Z"/><path class="cls-3" d="M177.59,166.73a32.4,32.4,0,0,1-17.9,5.6,28.27,28.27,0,0,1-13.9-3.7c-9.2,1.2-23.7,4.6-26.8,9.4-3.3,5.1-4.4,27.6-4.3,41.7a71.7,71.7,0,0,0,18.3,10.4v-28.6a3.3,3.3,0,1,1,6.6,0v30.7a69.09,69.09,0,0,0,17.9,2.4v3.3l.1-3.3a88.16,88.16,0,0,0,30-5l-1.9-25.9a3.26,3.26,0,1,1,6.5-.5L194,227a71.88,71.88,0,0,0,18.4-12.2c-1-14.1-3.5-36.6-6.2-41.2C204.09,170.33,190,167.43,177.59,166.73Z"/><path class="cls-4" d="M157.49,81.63c-46.2,0-78.4,42.7-78.4,81.1,0,21.8,11.1,45.1,29.7,60.6a3.25,3.25,0,0,0,1.3,1,76.59,76.59,0,0,0,24.7,13.3,1.69,1.69,0,0,0,1,.3,76.21,76.21,0,0,0,21.6,3.2h.1a94,94,0,0,0,34.2-6.3,3.55,3.55,0,0,0,.9-.4,81.17,81.17,0,0,0,27.3-18,78.83,78.83,0,0,0,22.8-55.1C242.69,122.83,220.29,81.63,157.49,81.63Zm36.4,145.3-1.8-23.8a3.26,3.26,0,1,0-6.5.5l1.9,25.9a88.16,88.16,0,0,1-30,5h-.1a65.57,65.57,0,0,1-17.9-2.4v-30.6a3.3,3.3,0,0,0-6.6,0v28.6a71.7,71.7,0,0,1-18.3-10.4c-.1-14.1,1-36.6,4.3-41.7,3.1-4.8,17.6-8.2,26.8-9.4a28.27,28.27,0,0,0,13.9,3.7,32.15,32.15,0,0,0,17.9-5.6c12.4.7,26.5,3.6,28.4,6.9,2.7,4.6,5.2,27.1,6.2,41.2A67.19,67.19,0,0,1,193.89,226.93Zm-57.7-84.6c0-10.2,8.9-24.4,23.5-24.4,24,0,25.9,18.3,25.9,24,0,7.2-4.3,14.1-10.5,18.7a1.56,1.56,0,0,0-.8.6,26.4,26.4,0,0,1-14.6,4.7C146.49,165.83,136.19,153.13,136.19,142.33Zm82.2,66.3c-1-11.5-3.2-32.6-6.7-38.4-3.6-6-17.5-8.5-27.2-9.5a28.83,28.83,0,0,0,7.6-18.9c0-14.7-8.5-30.5-32.4-30.5-17.7,0-30,16.3-30,31,0,7.3,3.4,15,9,20.8-8.4,1.6-21.1,5-25.2,11.3-4.3,6.6-5.1,27.9-5.3,39.5-14.2-14-22.5-33.2-22.5-51.3,0-35.3,29.5-74.6,71.9-74.6,72.9,0,78.6,56.1,78.6,73.2A73.33,73.33,0,0,1,218.39,208.63Z"/><path class="cls-5" d="M370.73,165.53c0-35.2-13.5-49.6-46.7-49.6h-68.4a3.3,3.3,0,1,0,0,6.6H324c29.3,0,40.2,11.7,40.2,43.1v64.7L342.53,210a3.26,3.26,0,0,0-4.4,4.8l27.2,25.4a3.1,3.1,0,0,0,2.2.9,3.34,3.34,0,0,0,2.3-.9l25.8-25.4a3.25,3.25,0,0,0-4.6-4.6l-20.3,19.7Z"/><path class="cls-5" d="M245.43,379.83H177c-29.3,0-40.2-11.7-40.2-43.1V272l21.7,20.3a3.1,3.1,0,0,0,2.2.9,3.25,3.25,0,0,0,2.4-1,3.2,3.2,0,0,0-.2-4.6l-27.2-25.4a3.17,3.17,0,0,0-4.5.1l-25.8,25.4a3.25,3.25,0,0,0,4.6,4.6l20.2-19.9v64.4c0,35.2,13.5,49.6,46.7,49.6h68.4a3.33,3.33,0,0,0,3.3-3.3A3.24,3.24,0,0,0,245.43,379.83Z"/></g></svg>