<?xml version="1.0" encoding="utf-8"?>
<!-- Generator: Adobe Illustrator 22.1.0, SVG Export Plug-In . SVG Version: 6.00 Build 0)  -->
<svg version="1.1" id="Layer_1" xmlns="http://www.w3.org/2000/svg" xmlns:xlink="http://www.w3.org/1999/xlink" x="0px" y="0px"
	 viewBox="0 0 1524.3 569.1" style="enable-background:new 0 0 1524.3 569.1;" xml:space="preserve">
<style type="text/css">
	.st0{fill:#FFFFFF;}
	.st1{fill:none;stroke:#FFFFFF;stroke-width:0.8203;stroke-miterlimit:10;}
	.st2{opacity:0.4706;enable-background:new    ;}
	.st3{clip-path:url(#SVGID_2_);fill:#FFFFFF;}
	.st4{clip-path:url(#SVGID_2_);fill:none;stroke:#FFFFFF;stroke-miterlimit:10;}
	.st5{fill:url(#SVGID_3_);}
	.st6{fill:none;stroke:#FFFFFF;stroke-miterlimit:10;}
	.st7{clip-path:url(#SVGID_5_);fill:url(#SVGID_6_);}
	.st8{clip-path:url(#SVGID_5_);fill:none;stroke:#FFFFFF;stroke-miterlimit:10;}
	.st9{opacity:0.4118;enable-background:new    ;}
	.st10{clip-path:url(#SVGID_8_);fill:#FFFFFF;}
	.st11{clip-path:url(#SVGID_8_);fill:none;stroke:#FFFFFF;stroke-miterlimit:10;}
	.st12{clip-path:url(#SVGID_10_);fill:#FFFFFF;}
	.st13{clip-path:url(#SVGID_10_);fill:none;stroke:#FFFFFF;stroke-miterlimit:10;}
	.st14{clip-path:url(#SVGID_12_);fill:#FFFFFF;}
	.st15{clip-path:url(#SVGID_12_);fill:none;stroke:#FFFFFF;stroke-miterlimit:10;}
</style>
<g>
	<title>socially-logo-name-white copy</title>
	<path class="st0" d="M786.3,132.5c-29.3-1.3-48.4,17-48.4,41.7c0,9.3,3.1,19.3,8,29.3c23.2,40.4,57.6,87,57.6,138.4
		c0,13.1-2.3,26.1-7,38.3C786.2,406,764.1,423,726.7,423c-40.3,0-65.3-25.2-65.3-66.4c0-23.5,14.4-48.1,40.1-48.1
		c11.3,0,16.2,6.4,18.3,10.3c0.8,1.1,1.9,2,3.1,2.6l-6.7,3.6c-4.4-8-7-10-14.9-10c-22.6,0-32.9,22.6-32.9,42.5c0,28.3,18,53,41.2,53
		c8.2,0,18.5-4.2,27.8-11.1c12.3-10.4,19-27.5,22.1-45c0.9-5.3,1.3-10.6,1.3-16c0-31.6-18-60.2-33.7-85.4
		c-15.7-24.4-30.4-48.6-30.4-75.1c0-5.5,0.6-10.9,1.8-16.3c9.8-33.2,35.8-49.1,65.9-47.9c29.3,1.3,44.3,16.5,44.8,45
		c-1,10.5-3.1,17.2-6.2,22.1c-5.4,7.2-12.6,11.4-19,11.4c-7.5,0-15.4-3.9-21.9-10l3.1-6.2c6.4,5.9,12.6,9.8,18.5,9.8
		c5.4,0,10-2.8,14-8.5c3.1-5.6,4.7-11.9,4.8-18.3C802.4,148.2,799.9,132.5,786.3,132.5z"/>
	<path class="st0" d="M906.9,293.1c11.1,0,18.8-6.2,25.2-14.1l5.9,0.3c-7.5,10.3-18.5,20.1-32.9,20.1c-7.7,18-21.4,47.6-44.8,47.6
		c-34,0-35.2-38.6-35.2-63.8c0-10.5,7.2-51.2,20.6-51.2c6.2,0,12.9,11.8,14.4,17c-1.3-13.6-0.3-32.9,17.5-32.9
		c24.7,0,31.4,39.9,31.4,58.1C909,280.4,908.3,286.8,906.9,293.1z M860.9,252.1v0.3c-4.1,12.9-6.2,26.3-6.2,39.9
		c0,9,1.3,42.7,14.7,42.7s25.5-26.5,29.6-36.8C879.2,288.7,866.6,273.5,860.9,252.1L860.9,252.1z M901,292.3
		c2.1-5.9,2.1-12.9,2.1-19c0-14.4-5.6-51.2-25.2-51.2c-11.3,0-12.1,10.5-12.1,19.5C865.8,263.2,881.2,284.8,901,292.3L901,292.3z"/>
	<path class="st0" d="M964.6,213.3c13.6,0,22.3,15.2,22.3,28l-3.3,0.3c-2.8-11.6-5.7-14.7-12.6-15.4c-22.6-2.1-26.3,31.4-26.3,47.6
		c0,25.5,5.4,61.8,30.7,61.8c14.7,0,25.7-14.2,33.2-25c8.2-13.6,14.9-28,15.7-30.9h5.7c0,2.1-6.7,18-15.7,34
		c-11.1,18.5-31.4,39.1-56.1,39.1c-28.6,0-42.8-39.3-42.8-71C915.4,246.7,934.2,213.3,964.6,213.3z"/>
	<path class="st0" d="M1096.6,279.9c-3.9,10.3-9.3,23.4-13.4,31.9c-9,18.5-20.8,36.5-34.2,36.5c-24.2,0-27.8-47.1-27.8-63.8
		c0-17.5-2.6-49.7,21.9-49.7c5.9,0,7.7,4.4,7.7,9.5c0,11.1-2.6,21.4-2.6,32.4c0,9.3,0.3,52,14.2,52c4.4,0,10-8.5,14.9-18.5
		c3.9-8,9-20.1,12.9-30.1L1096.6,279.9z M1040.5,185.1c7.7-0.1,14,6.1,14.2,13.8c0,0.1,0,0.3,0,0.4c0,9.3-4.6,16.7-14.7,16.7
		c-8,0-13.6-5.9-13.6-14C1026.3,193,1030.4,185,1040.5,185.1L1040.5,185.1z"/>
	<path class="st0" d="M1216.7,278.9c-2.8,9-10.3,26-16,40.6c-7.5,19-17.2,36.8-28,36.8c-19.5,0-24.4-56.3-25.5-70.5
		c-4.1,14.9-18.8,48.7-37,48.7c-23.7,0-33.7-24.4-33.7-45c0-29.8,11.1-79.5,48.6-79.5c14.4,0,22.3,10.8,25.7,23.9l-4.4,1.6
		c-3.6-6.5-3.6-15.8-13.4-15.8c-22.9,0-28.6,49.4-28.6,66.1c0,9.8-0.5,33.7,14,33.7c23.7,0,30.6-90.8,40.6-90.8
		c9.6,0.3,17.3,8.1,17.2,17.8c0,15.7-1.3,31.6-1.3,47.3c0,5.4-0.8,44.8,7.5,44.8c5.9,0,18.3-34.5,21.6-42.7l7.1-17.2L1216.7,278.9z"
		/>
	<path class="st0" d="M1302.2,279.2l5.9,0.3c-9.3,27.8-25,84.9-57.6,84.9c-39.9,0-49.4-76.9-49.4-105.8
		c0-39.6,14.2-155.7,68.2-155.7c14.2,0,16.2,12.6,16.2,23.9c0,46.6-23.9,84.6-57.6,114.7c0,19.3,5.6,108.3,32.7,108.3
		C1280,349.9,1297,293.6,1302.2,279.2z M1275.5,113.2c-27.5,0-45.8,99.1-47.9,119.9c8.7-7.3,16.6-15.6,23.4-24.7
		c17.8-23.7,28.8-53,28.8-81.8C1279.8,123.5,1280.3,113.2,1275.5,113.2z"/>
	<path class="st0" d="M1391.4,279.2l5.9,0.3c-9.3,27.8-25,84.9-57.6,84.9c-39.9,0-49.4-76.9-49.4-105.8
		c0-39.6,14.2-155.7,68.2-155.7c14.2,0,16.2,12.6,16.2,23.9c0,46.6-23.9,84.6-57.6,114.7c0,19.3,5.7,108.3,32.7,108.3
		C1369.3,349.9,1386.3,293.6,1391.4,279.2z M1364.7,113.2c-27.5,0-45.8,99.1-47.9,119.9c8.7-7.3,16.6-15.6,23.4-24.7
		c17.8-23.7,28.8-53,28.8-81.8C1369.1,123.5,1369.6,113.2,1364.7,113.2z"/>
	<path class="st0" d="M1485.1,319.3c16.7-10.3,25.5-22.3,33.5-40.1l5.7-1.5c-4.9,21.4-20.8,39.1-39.6,49.4c0,35-19.3,184-64.8,184
		c-25.2,0-32.1-32.7-32.1-52c0-47.9,27-104.5,69.2-128.9c1-18.5,2.8-36.3,2.8-54.8v-3.5c-4.9,24.2-21.4,68.2-51.2,68.2
		c-26.5,0-30.6-29.8-30.6-50.7c0-14.9,14.2-78.2,31.4-78.2c5.1,0,14.4,3.3,14.4,10c0,15.2-17.5,35.5-17.5,78.5
		c0,8.2,0,27.5,11.6,27.5c27.3,0,31.1-54.5,41.4-78.5c3.9-9.5,11.8-10.3,19-5.9c10.3,6.2,9.3,22.6,9.3,30.6
		C1487.4,288.7,1487.2,303.9,1485.1,319.3z M1407.1,497.4c22.6-6.2,43.3-131.7,48.4-159.5c-39.4,24.2-61.2,78-61.2,122.8
		C1394.3,471.1,1395.8,492,1407.1,497.4z"/>
</g>
<path class="st0" d="M451.2,203.7c-17.9-9.9-38.2-15.5-59.8-15.5c-72.7,0-131.7,63.7-131.7,142.2c0,6.6,0.4,12.9,1.2,19.2
	c-23.9-25.8-57-41.7-93.5-41.7c-45.5,0-85.4,24.7-109.2,62.2c0,0,0,0.1-0.1,0.1c0.3,0.4,0.6,0.7,0.9,1c5,6.9,10.7,14.4,17,22.4
	c53.7,68.6,147.5,171.8,147.5,171.8c4,3.7,9.8,3.7,12.9,0c0,0,144.9-157.5,177.4-212.7c24.3-35.7,38.5-78.7,38.6-125.1
	c0-0.1,0-0.1,0-0.2C452.5,219.5,452,211.5,451.2,203.7z"/>
<path class="st1" d="M451.2,203.7c-17.9-9.9-38.2-15.5-59.8-15.5c-72.7,0-131.7,63.7-131.7,142.2c0,6.6,0.4,12.9,1.2,19.2
	c-23.9-25.8-57-41.7-93.5-41.7c-45.5,0-85.4,24.7-109.2,62.2c0,0,0,0.1-0.1,0.1c0.3,0.4,0.6,0.7,0.9,1c5,6.9,10.7,14.4,17,22.4
	c53.7,68.6,147.5,171.8,147.5,171.8c4,3.7,9.8,3.7,12.9,0c0,0,144.9-157.5,177.4-212.7c24.3-35.7,38.5-78.7,38.6-125.1
	c0-0.1,0-0.1,0-0.2C452.5,219.5,452,211.5,451.2,203.7z"/>
<g class="st2">
	<g>
		<defs>
			<rect id="SVGID_1_" x="50.1" y="204.3" width="408.6" height="369.6"/>
		</defs>
		<clipPath id="SVGID_2_">
			<use xlink:href="#SVGID_1_"  style="overflow:visible;"/>
		</clipPath>
		<path class="st3" d="M275.4,386.1c0-0.2-0.1-0.4-0.1-0.6C275.4,385.7,275.4,385.9,275.4,386.1z M276.5,391.6L276.5,391.6
			L276.5,391.6z M279.1,384.8c-0.2-0.3-0.4-0.5-0.7-0.8C278.7,384.3,278.9,384.6,279.1,384.8z M282.8,389.4
			c-0.1-0.2-0.3-0.4-0.4-0.5C282.5,389,282.6,389.2,282.8,389.4z M286.3,394c0-0.1-0.1-0.1-0.1-0.2C286.2,393.9,286.2,394,286.3,394
			z M236.5,565.5c0,0,144.9-157.5,177.4-212.7c24.3-35.7,38.5-78.7,38.6-125.1c-14.7-6.2-30.7-9.7-47.5-9.7
			c-72.7,0-131.7,63.7-131.7,142.2c0,6.6,0.4,12.9,1.2,19.2c-23.9-25.8-45.2-44.2-97.2-52.9c-42.2-7.1-94.9,9.6-119.1,43.6
			c52.3,72.4,165.3,195.3,165.3,195.3C227.6,569.1,233.4,569.1,236.5,565.5z"/>
		<path class="st4" d="M275.4,386.1c0-0.2-0.1-0.4-0.1-0.6C275.4,385.7,275.4,385.9,275.4,386.1z M276.5,391.6L276.5,391.6
			L276.5,391.6z M279.1,384.8c-0.2-0.3-0.4-0.5-0.7-0.8C278.7,384.3,278.9,384.6,279.1,384.8z M282.8,389.4
			c-0.1-0.2-0.3-0.4-0.4-0.5C282.5,389,282.6,389.2,282.8,389.4z M286.3,394c0-0.1-0.1-0.1-0.1-0.2C286.2,393.9,286.2,394,286.3,394
			z M236.5,565.5c0,0,144.9-157.5,177.4-212.7c24.3-35.7,38.5-78.7,38.6-125.1c-14.7-6.2-30.7-9.7-47.5-9.7
			c-72.7,0-131.7,63.7-131.7,142.2c0,6.6,0.4,12.9,1.2,19.2c-23.9-25.8-45.2-44.2-97.2-52.9c-42.2-7.1-94.9,9.6-119.1,43.6
			c52.3,72.4,165.3,195.3,165.3,195.3C227.6,569.1,233.4,569.1,236.5,565.5z"/>
	</g>
</g>
<linearGradient id="SVGID_3_" gradientUnits="userSpaceOnUse" x1="227.9656" y1="460.4521" x2="573.3196" y2="460.4521" gradientTransform="matrix(1 0 0 -1 -223.3149 514.9935)">
	<stop  offset="0" style="stop-color:#EA5E3C"/>
	<stop  offset="9.760000e-03" style="stop-color:#EA5E3C"/>
	<stop  offset="0.5098" style="stop-color:#DD4156"/>
	<stop  offset="1" style="stop-color:#D62E6A"/>
</linearGradient>
<path class="st5" d="M327.6,58c0.6-0.9,3.9-3.8,7.8-7c-2.4,1.9-5.4,4.3-8.3,6.7L327.6,58z"/>
<path class="st6" d="M327.6,58c0.6-0.9,3.9-3.8,7.8-7c-2.4,1.9-5.4,4.3-8.3,6.7L327.6,58z"/>
<g class="st2">
	<g>
		<defs>
			<rect id="SVGID_4_" x="332.2" y="38.9" width="19.5" height="19.5"/>
		</defs>
		<clipPath id="SVGID_5_">
			<use xlink:href="#SVGID_4_"  style="overflow:visible;"/>
		</clipPath>
		
			<linearGradient id="SVGID_6_" gradientUnits="userSpaceOnUse" x1="245.7439" y1="468.6769" x2="570.4348" y2="468.6769" gradientTransform="matrix(1 0 0 -1 -230.7661 518.0458)">
			<stop  offset="0" style="stop-color:#FFFFFF"/>
			<stop  offset="9.760000e-03" style="stop-color:#FFFFFF"/>
			<stop  offset="0.5098" style="stop-color:#DD4156"/>
			<stop  offset="1" style="stop-color:#D62E6A"/>
		</linearGradient>
		<path class="st7" d="M339.6,47.7c-1.4,1.1-2.8,2.3-4.2,3.4C337.9,49.1,339.7,47.7,339.6,47.7C339.7,47.7,339.6,47.7,339.6,47.7z"
			/>
		<path class="st8" d="M339.6,47.7c-1.4,1.1-2.8,2.3-4.2,3.4C337.9,49.1,339.7,47.7,339.6,47.7C339.7,47.7,339.6,47.7,339.6,47.7z"
			/>
	</g>
</g>
<path class="st0" d="M226.3,2.8C104.1,2.8,4.7,102.2,4.7,224.4c0,44.4,13.1,87.2,37.9,123.9l6,8.3l16.1-20.8l-0.2-0.4l-0.7-1.3
	c-21.9-32.4-33.5-70.3-33.5-109.6c0-108.1,87.9-196.1,196.1-196.1c37.5,0,65.9,8.1,96.6,26.7l4.4,2.8c2.9-2.4,5.9-4.8,8.3-6.7
	c1.4-1.1,2.8-2.3,4.2-3.4c5.4-4.4,10.4-8.4,10.4-8.4C314.7,14.9,268.6,2.8,226.3,2.8z"/>
<path class="st1" d="M226.3,2.8C104.1,2.8,4.7,102.2,4.7,224.4c0,44.4,13.1,87.2,37.9,123.9l6,8.3l16.1-20.8l-0.2-0.4l-0.7-1.3
	c-21.9-32.4-33.5-70.3-33.5-109.6c0-108.1,87.9-196.1,196.1-196.1c37.5,0,65.9,8.1,96.6,26.7l4.4,2.8c2.9-2.4,5.9-4.8,8.3-6.7
	c1.4-1.1,2.8-2.3,4.2-3.4c5.4-4.4,10.4-8.4,10.4-8.4C314.7,14.9,268.6,2.8,226.3,2.8z"/>
<g class="st9">
	<g>
		<defs>
			<rect id="SVGID_7_" x="1.4" width="350.2" height="340.5"/>
		</defs>
		<clipPath id="SVGID_8_">
			<use xlink:href="#SVGID_7_"  style="overflow:visible;"/>
		</clipPath>
		<path class="st10" d="M223.3,13.4C108.4,13.4,15,106.9,15,221.8c0,41.8,26.1,79.2,49.3,113.6l-0.7-1.3
			c-21.9-32.4-33.5-70.3-33.5-109.6c0-108.1,87.9-196.1,196.1-196.1c37.5,0,65.9,8.1,96.6,26.7l4.4,2.8c2.9-2.4,5.9-4.8,8.3-6.7
			c1.4-1.1,2.8-2.3,4.2-3.4C306.5,24.7,263.1,13.4,223.3,13.4z"/>
		<path class="st11" d="M223.3,13.4C108.4,13.4,15,106.9,15,221.8c0,41.8,26.1,79.2,49.3,113.6l-0.7-1.3
			c-21.9-32.4-33.5-70.3-33.5-109.6c0-108.1,87.9-196.1,196.1-196.1c37.5,0,65.9,8.1,96.6,26.7l4.4,2.8c2.9-2.4,5.9-4.8,8.3-6.7
			c1.4-1.1,2.8-2.3,4.2-3.4C306.5,24.7,263.1,13.4,223.3,13.4z"/>
	</g>
</g>
<path class="st0" d="M233,202.6c-0.1-0.5-0.2-1-0.3-1.5c-0.1-0.5-0.2-1-0.3-1.5c-0.2-0.7-0.3-1.5-0.5-2.2c-0.1-0.4-0.2-0.8-0.3-1.2
	c-0.2-0.6-0.4-1.3-0.5-1.9c-0.3-0.9-0.6-1.9-0.9-2.8v-0.1c-5.2-14.7-15.4-27.1-28.6-35c-5.9-3.9-10.3-5.6-10.7-5.2
	c-7.3-2.7-15.1-4.2-23.3-4.2c-36.7,0-66.4,29.7-66.4,66.4c0,8.6,1.7,16.8,4.6,24.3c9.7,24.7,33.7,42.2,61.9,42.2
	c28.2,0,52.1-17.5,61.9-42.1c3-7.6,4.6-15.7,4.6-24.4C233.9,209.7,233.6,206.1,233,202.6z"/>
<path class="st1" d="M233,202.6c-0.1-0.5-0.2-1-0.3-1.5c-0.1-0.5-0.2-1-0.3-1.5c-0.2-0.7-0.3-1.5-0.5-2.2c-0.1-0.4-0.2-0.8-0.3-1.2
	c-0.2-0.6-0.4-1.3-0.5-1.9c-0.3-0.9-0.6-1.9-0.9-2.8v-0.1c-5.2-14.7-15.4-27.1-28.6-35c-5.9-3.9-10.3-5.6-10.7-5.2
	c-7.3-2.7-15.1-4.2-23.3-4.2c-36.7,0-66.4,29.7-66.4,66.4c0,8.6,1.7,16.8,4.6,24.3c9.7,24.7,33.7,42.2,61.9,42.2
	c28.2,0,52.1-17.5,61.9-42.1c3-7.6,4.6-15.7,4.6-24.4C233.9,209.7,233.6,206.1,233,202.6z"/>
<g class="st9">
	<g>
		<defs>
			<rect id="SVGID_9_" x="98.7" y="136.2" width="145.9" height="155.6"/>
		</defs>
		<clipPath id="SVGID_10_">
			<use xlink:href="#SVGID_9_"  style="overflow:visible;"/>
		</clipPath>
		<path class="st12" d="M167.5,279.8c28.2,0,52.1-17.5,61.9-42.1v-0.1c2.5-6.9,6.2-20,3.8-35c-0.1-0.5-0.2-1-0.3-1.5
			c-0.1-0.5-0.2-1-0.3-1.5c-0.2-0.7-0.3-1.5-0.5-2.2c-0.1-0.4-0.2-0.8-0.3-1.2c-0.2-0.6-0.4-1.3-0.5-1.9c-0.3-0.9-0.6-1.9-0.9-2.8
			v-0.1c-6.3-17.2-19.3-28.8-28.6-35c-3.4-2-7-3.8-10.7-5.2c-0.4,0.5,4.3,3.5,6.2,10c2.6,8.9-1.1,19.5-7.6,26.3
			c-5,5.3-11,7.6-16.3,8.5c-1.9-0.2-3.8-0.3-5.7-0.3c-2.3,0-4.6,0.1-6.8,0.3c-25.2,2.6-46.2,19.1-55,41.8
			C115.4,262.3,139.4,279.8,167.5,279.8z"/>
		<path class="st13" d="M167.5,279.8c28.2,0,52.1-17.5,61.9-42.1v-0.1c2.5-6.9,6.2-20,3.8-35c-0.1-0.5-0.2-1-0.3-1.5
			c-0.1-0.5-0.2-1-0.3-1.5c-0.2-0.7-0.3-1.5-0.5-2.2c-0.1-0.4-0.2-0.8-0.3-1.2c-0.2-0.6-0.4-1.3-0.5-1.9c-0.3-0.9-0.6-1.9-0.9-2.8
			v-0.1c-6.3-17.2-19.3-28.8-28.6-35c-3.4-2-7-3.8-10.7-5.2c-0.4,0.5,4.3,3.5,6.2,10c2.6,8.9-1.1,19.5-7.6,26.3
			c-5,5.3-11,7.6-16.3,8.5c-1.9-0.2-3.8-0.3-5.7-0.3c-2.3,0-4.6,0.1-6.8,0.3c-25.2,2.6-46.2,19.1-55,41.8
			C115.4,262.3,139.4,279.8,167.5,279.8z"/>
	</g>
</g>
<path class="st0" d="M409.2,95.5c-12.2-16.6-26.6-31.4-42.9-44.1c-23.6,10.2-40,33.7-40,61.1c0,9,1.8,17.4,5,25.2
	c9.9,24.3,33.8,41.4,61.7,41.4c19.1,0,36.3-8.1,48.5-21C434,135.4,423,114.3,409.2,95.5z"/>
<path class="st1" d="M409.2,95.5c-12.2-16.6-26.6-31.4-42.9-44.1c-23.6,10.2-40,33.7-40,61.1c0,9,1.8,17.4,5,25.2
	c9.9,24.3,33.8,41.4,61.7,41.4c19.1,0,36.3-8.1,48.5-21C434,135.4,423,114.3,409.2,95.5z"/>
<g class="st9">
	<g>
		<defs>
			<rect id="SVGID_11_" x="322.4" y="77.8" width="126.5" height="107"/>
		</defs>
		<clipPath id="SVGID_12_">
			<use xlink:href="#SVGID_11_"  style="overflow:visible;"/>
		</clipPath>
		<path class="st14" d="M392.9,179.1c19.1,0,36.3-8.1,48.5-21c-7.5-22.7-18.4-43.8-32.2-62.6c-1.4,4.8-4,9.4-7.4,12.8
			c-5,5.3-11,7.6-16.3,8.5c-1.9-0.2-3.8-0.3-5.7-0.3c-2.3,0-4.6,0.1-6.8,0.3c-16.4,1.7-31.1,9.4-41.8,20.8
			C341.3,162,365.1,179.1,392.9,179.1z"/>
		<path class="st15" d="M392.9,179.1c19.1,0,36.3-8.1,48.5-21c-7.5-22.7-18.4-43.8-32.2-62.6c-1.4,4.8-4,9.4-7.4,12.8
			c-5,5.3-11,7.6-16.3,8.5c-1.9-0.2-3.8-0.3-5.7-0.3c-2.3,0-4.6,0.1-6.8,0.3c-16.4,1.7-31.1,9.4-41.8,20.8
			C341.3,162,365.1,179.1,392.9,179.1z"/>
	</g>
</g>
</svg>
